<svg xmlns="http://www.w3.org/2000/svg" viewBox="0 0 460 300" fill="none">
  <defs>
    <linearGradient id="skScreen" x1="0" y1="0" x2="1" y2="1">
      <stop stop-color="#1a1140"/><stop offset="1" stop-color="#2a1a5e"/>
    </linearGradient>
    <linearGradient id="skGlow" x1="0" y1="0" x2="1" y2="1">
      <stop stop-color="#7c5cff"/><stop offset="1" stop-color="#3ba7ff"/>
    </linearGradient>
    <radialGradient id="skHalo" cx="0.5" cy="0.5" r="0.5">
      <stop stop-color="#7c5cff" stop-opacity="0.35"/><stop offset="1" stop-color="#7c5cff" stop-opacity="0"/>
    </radialGradient>
  </defs>
  <circle cx="240" cy="160" r="150" fill="url(#skHalo)"/>
  <path d="M120 300 Q90 200 180 170 M340 300 Q380 190 300 150" stroke="#7c5cff" stroke-opacity="0.25" stroke-dasharray="3 6"/>
  <!-- Laptop -->
  <rect x="150" y="120" width="180" height="112" rx="8" fill="url(#skScreen)" stroke="url(#skGlow)" stroke-width="1.5" stroke-opacity="0.6"/>
  <rect x="162" y="132" width="156" height="88" rx="4" fill="#0c1030"/>
  <path d="M212 158 l-16 18 l16 18 M268 158 l16 18 l-16 18" stroke="#3ed6c0" stroke-width="4" fill="none" stroke-linecap="round" stroke-linejoin="round"/>
  <path d="M238 152 l4 48" stroke="#3ed6c0" stroke-width="4" stroke-linecap="round"/>
  <path d="M132 232 h216 l-14 16 h-188 Z" fill="#241a52" stroke="url(#skGlow)" stroke-width="1" stroke-opacity="0.5"/>
  <!-- Floating tech chips -->
  <g>
    <rect x="300" y="40" width="54" height="54" rx="12" fill="#0f1740" stroke="#3ba7ff" stroke-opacity="0.6"/>
    <text x="327" y="76" font-family="Segoe UI, Arial, sans-serif" font-size="24" font-weight="800" fill="#3ba7ff" text-anchor="middle">TS</text>
  </g>
  <g>
    <rect x="378" y="70" width="50" height="50" rx="12" fill="#2a0e18" stroke="#e23237" stroke-opacity="0.7"/>
    <text x="403" y="104" font-family="Segoe UI, Arial, sans-serif" font-size="26" font-weight="800" fill="#e84c4c" text-anchor="middle">A</text>
  </g>
  <g>
    <rect x="96" y="92" width="48" height="48" rx="12" fill="#0d1b3a" stroke="#54c5f8" stroke-opacity="0.7"/>
    <path d="M112 128 l16 -24 l4 6 l-12 18 Z M124 116 l8 -12 l4 6 l-6 9 Z" fill="#54c5f8"/>
  </g>
  <g>
    <rect x="356" y="150" width="50" height="50" rx="12" fill="#141033" stroke="url(#skGlow)" stroke-opacity="0.7"/>
    <path d="M381 160 l16 9 v18 l-16 9 l-16 -9 v-18 Z" stroke="#c9b8ff" stroke-width="1.5" fill="none"/>
  </g>
  <circle cx="108" cy="164" r="12" fill="#7c5cff" fill-opacity="0.4"/>
</svg>
