<svg xmlns="http://www.w3.org/2000/svg" viewBox="0 0 640 360" fill="none">
  <defs>
    <linearGradient id="aiBg" x1="0" y1="0" x2="640" y2="360" gradientUnits="userSpaceOnUse">
      <stop stop-color="#0b1024"/>
      <stop offset="1" stop-color="#1e103a"/>
    </linearGradient>
    <linearGradient id="aiGlow" x1="0" y1="0" x2="1" y2="1">
      <stop stop-color="#7c5cff"/>
      <stop offset="1" stop-color="#3ba7ff"/>
    </linearGradient>
    <radialGradient id="aiHalo" cx="0.5" cy="0.45" r="0.5">
      <stop stop-color="#7c5cff" stop-opacity="0.45"/>
      <stop offset="1" stop-color="#7c5cff" stop-opacity="0"/>
    </radialGradient>
  </defs>
  <rect width="640" height="360" fill="url(#aiBg)"/>
  <g stroke="#3ba7ff" stroke-opacity="0.08">
    <path d="M0 90H640M0 180H640M0 270H640M160 0V360M320 0V360M480 0V360"/>
  </g>
  <circle cx="320" cy="165" r="140" fill="url(#aiHalo)"/>
  <circle cx="320" cy="165" r="96" stroke="url(#aiGlow)" stroke-width="2" stroke-opacity="0.6"/>
  <circle cx="320" cy="165" r="64" stroke="url(#aiGlow)" stroke-width="1.5" stroke-opacity="0.4"/>
  <text x="320" y="188" font-family="Segoe UI, Arial, sans-serif" font-size="78" font-weight="800" fill="url(#aiGlow)" text-anchor="middle">AI</text>
  <g fill="#3ba7ff">
    <circle cx="320" cy="69" r="5"/><circle cx="416" cy="165" r="5"/>
    <circle cx="320" cy="261" r="5"/><circle cx="224" cy="165" r="5"/>
    <circle cx="252" cy="97" r="4"/><circle cx="388" cy="97" r="4"/>
    <circle cx="388" cy="233" r="4"/><circle cx="252" cy="233" r="4"/>
  </g>
</svg>
