<svg xmlns="http://www.w3.org/2000/svg" viewBox="0 0 640 360" fill="none">
  <defs>
    <linearGradient id="zBg" x1="0" y1="0" x2="640" y2="360" gradientUnits="userSpaceOnUse">
      <stop stop-color="#0b1024"/>
      <stop offset="1" stop-color="#1c1340"/>
    </linearGradient>
    <linearGradient id="zGlow" x1="0" y1="0" x2="1" y2="1">
      <stop stop-color="#7c5cff"/><stop offset="1" stop-color="#3ba7ff"/>
    </linearGradient>
  </defs>
  <rect width="640" height="360" fill="url(#zBg)"/>
  <g stroke="#7c5cff" stroke-opacity="0.08">
    <path d="M0 120H640M0 240H640M213 0V360M426 0V360"/>
  </g>
  <rect x="238" y="66" width="164" height="228" rx="14" fill="#12183a" stroke="url(#zGlow)" stroke-width="2" stroke-opacity="0.6"/>
  <g stroke="#3ba7ff" stroke-opacity="0.65" stroke-width="6" stroke-linecap="round">
    <path d="M262 104 h60"/>
    <path d="M262 132 h116"/><path d="M262 152 h116"/><path d="M262 172 h96"/>
    <path d="M262 208 h116"/><path d="M262 228 h116"/><path d="M262 248 h74"/>
  </g>
  <g fill="url(#zGlow)">
    <path d="M452 96 l10 24 l24 10 l-24 10 l-10 24 l-10 -24 l-24 -10 l24 -10 Z"/>
    <path d="M188 210 l6 15 l15 6 l-15 6 l-6 15 l-6 -15 l-15 -6 l15 -6 Z" opacity="0.8"/>
  </g>
</svg>
